<svg width="21" height="20" viewBox="0 0 21 20" fill="none" xmlns="http://www.w3.org/2000/svg">
<path d="M18.5349 2.59133C18.0707 2.08683 17.5195 1.68663 16.9128 1.41358C16.3061 1.14054 15.6558 1 14.9991 1C14.3424 1 13.6921 1.14054 13.0854 1.41358C12.4787 1.68663 11.9275 2.08683 11.4633 2.59133L10.4998 3.63785L9.53626 2.59133C8.5985 1.57276 7.32662 1.00053 6.00043 1.00053C4.67423 1.00053 3.40235 1.57276 2.46459 2.59133C1.52683 3.6099 1 4.99139 1 6.43187C1 7.87235 1.52683 9.25383 2.46459 10.2724L3.42808 11.3189L10.4998 19L17.5714 11.3189L18.5349 10.2724C18.9994 9.76814 19.3678 9.16942 19.6192 8.51045C19.8706 7.85148 20 7.14517 20 6.43187C20 5.71857 19.8706 5.01225 19.6192 4.35328C19.3678 3.69431 18.9994 3.09559 18.5349 2.59133V2.59133Z" stroke="#B9B9B9" stroke-width="1.8" stroke-linecap="round" stroke-linejoin="round"/>
</svg>
