<svg width="20" height="20" viewBox="0 0 20 20" fill="none" xmlns="http://www.w3.org/2000/svg">
<path fill-rule="evenodd" clip-rule="evenodd" d="M7.56632 17.8943V15.1342C7.5663 14.4322 8.13528 13.8617 8.84024 13.857H11.4225C12.1308 13.857 12.7051 14.4288 12.7051 15.1342V15.1342V17.9028C12.7049 18.4989 13.1826 18.986 13.781 19H15.5025C17.2187 19 18.6099 17.6146 18.6099 15.9056V15.9056V8.05405C18.6007 7.38174 18.2837 6.75041 17.7491 6.33973L11.8615 1.61677C10.8301 0.79441 9.36384 0.79441 8.33239 1.61677L2.47062 6.3483C1.93399 6.75732 1.61647 7.3897 1.60986 8.06262V15.9056C1.60986 17.6146 3.00107 19 4.7172 19H6.43872C7.05197 19 7.5491 18.5049 7.5491 17.8943V17.8943" fill="url(#paint0_linear_247_6796)"/>
<path d="M7.56632 17.8943V15.1342C7.5663 14.4322 8.13528 13.8617 8.84024 13.857H11.4225C12.1308 13.857 12.7051 14.4288 12.7051 15.1342V15.1342V17.9028C12.7049 18.4989 13.1826 18.986 13.781 19H15.5025C17.2187 19 18.6099 17.6146 18.6099 15.9056V15.9056V8.05405C18.6007 7.38174 18.2837 6.75041 17.7491 6.33973L11.8615 1.61677C10.8301 0.79441 9.36384 0.79441 8.33239 1.61677L2.47062 6.3483C1.93399 6.75732 1.61647 7.3897 1.60986 8.06262V15.9056C1.60986 17.6146 3.00107 19 4.7172 19H6.43872C7.05197 19 7.5491 18.5049 7.5491 17.8943V17.8943" stroke="url(#paint1_linear_247_6796)" stroke-width="1.5" stroke-linecap="round" stroke-linejoin="round"/>
<defs>
<linearGradient id="paint0_linear_247_6796" x1="10.1099" y1="1" x2="10.1099" y2="19" gradientUnits="userSpaceOnUse">
<stop stop-color="#9A6AFF"/>
<stop offset="1" stop-color="#6A2EE7"/>
</linearGradient>
<linearGradient id="paint1_linear_247_6796" x1="10.1099" y1="1" x2="10.1099" y2="19" gradientUnits="userSpaceOnUse">
<stop stop-color="#9A6AFF"/>
<stop offset="1" stop-color="#6A2EE7"/>
</linearGradient>
</defs>
</svg>
