<svg width="92" height="93" viewBox="0 0 92 93" fill="none" xmlns="http://www.w3.org/2000/svg">
<g filter="url(#filter0_d_247_6792)">
<rect width="60.175" height="61.8746" rx="23" transform="matrix(0.708151 -0.706061 0.708151 0.706061 2.68359 42.4873)" fill="url(#paint0_linear_247_6792)"/>
</g>
<path d="M46.8984 38.102H44.8984V42.0902H40.8984V44.0843H44.8984V48.0725H46.8984V44.0843H50.8984V42.0902H46.8984V38.102ZM45.8984 33.1168C40.3784 33.1168 35.8984 37.5836 35.8984 43.0873C35.8984 48.591 40.3784 53.0578 45.8984 53.0578C51.4184 53.0578 55.8984 48.591 55.8984 43.0873C55.8984 37.5836 51.4184 33.1168 45.8984 33.1168ZM45.8984 51.0637C41.4884 51.0637 37.8984 47.4843 37.8984 43.0873C37.8984 38.6903 41.4884 35.1109 45.8984 35.1109C50.3084 35.1109 53.8984 38.6903 53.8984 43.0873C53.8984 47.4843 50.3084 51.0637 45.8984 51.0637Z" fill="white"/>
<defs>
<filter id="filter0_d_247_6792" x="0.224609" y="1.51285" width="91.3477" height="91.1489" filterUnits="userSpaceOnUse" color-interpolation-filters="sRGB">
<feFlood flood-opacity="0" result="BackgroundImageFix"/>
<feColorMatrix in="SourceAlpha" type="matrix" values="0 0 0 0 0 0 0 0 0 0 0 0 0 0 0 0 0 0 127 0" result="hardAlpha"/>
<feOffset dy="4"/>
<feGaussianBlur stdDeviation="6"/>
<feColorMatrix type="matrix" values="0 0 0 0 0 0 0 0 0 0 0 0 0 0 0 0 0 0 0.25 0"/>
<feBlend mode="normal" in2="BackgroundImageFix" result="effect1_dropShadow_247_6792"/>
<feBlend mode="normal" in="SourceGraphic" in2="effect1_dropShadow_247_6792" result="shape"/>
</filter>
<linearGradient id="paint0_linear_247_6792" x1="30.0875" y1="0" x2="30.0875" y2="61.8746" gradientUnits="userSpaceOnUse">
<stop stop-color="#9A6AFF"/>
<stop offset="1" stop-color="#6A2EE7"/>
</linearGradient>
</defs>
</svg>
