<svg width="16" height="20" viewBox="0 0 16 20" fill="none" xmlns="http://www.w3.org/2000/svg">
<path fill-rule="evenodd" clip-rule="evenodd" d="M8.00046 13.2553C4.22455 13.2553 1 13.8272 1 16.1174C1 18.4077 4.20409 19 8.00046 19C11.7764 19 15 18.4272 15 16.1379C15 13.8486 11.7968 13.2553 8.00046 13.2553Z" fill="url(#paint0_linear_247_6812)" stroke="url(#paint1_linear_247_6812)" stroke-width="1.5" stroke-linecap="round" stroke-linejoin="round"/>
<path fill-rule="evenodd" clip-rule="evenodd" d="M8.00042 9.98868C10.4783 9.98868 12.4867 7.97599 12.4867 5.49388C12.4867 3.01177 10.4783 1 8.00042 1C5.52251 1 3.51321 3.01177 3.51321 5.49388C3.50484 7.9676 5.50019 9.9803 7.96881 9.98868H8.00042Z" fill="url(#paint2_linear_247_6812)" stroke="url(#paint3_linear_247_6812)" stroke-width="1.42857" stroke-linecap="round" stroke-linejoin="round"/>
<defs>
<linearGradient id="paint0_linear_247_6812" x1="8" y1="13.2553" x2="8" y2="19" gradientUnits="userSpaceOnUse">
<stop stop-color="#9A6AFF"/>
<stop offset="1" stop-color="#6A2EE7"/>
</linearGradient>
<linearGradient id="paint1_linear_247_6812" x1="8" y1="13.2553" x2="8" y2="19" gradientUnits="userSpaceOnUse">
<stop stop-color="#9A6AFF"/>
<stop offset="1" stop-color="#6A2EE7"/>
</linearGradient>
<linearGradient id="paint2_linear_247_6812" x1="7.99995" y1="1" x2="7.99995" y2="9.98868" gradientUnits="userSpaceOnUse">
<stop stop-color="#9A6AFF"/>
<stop offset="1" stop-color="#6A2EE7"/>
</linearGradient>
<linearGradient id="paint3_linear_247_6812" x1="7.99995" y1="1" x2="7.99995" y2="9.98868" gradientUnits="userSpaceOnUse">
<stop stop-color="#9A6AFF"/>
<stop offset="1" stop-color="#6A2EE7"/>
</linearGradient>
</defs>
</svg>
