<svg width="17" height="17" viewBox="0 0 17 17" fill="none" xmlns="http://www.w3.org/2000/svg">
<path d="M16.2249 0.783285C15.9065 0.458753 15.5027 0.230966 15.0603 0.126263C14.6179 0.0215604 14.1549 0.0442188 13.7249 0.191618L1.93319 4.13328C1.45762 4.28895 1.04209 4.58841 0.743982 4.99031C0.445869 5.39222 0.279867 5.87676 0.268892 6.37704C0.257917 6.87732 0.40251 7.36867 0.68271 7.78326C0.962911 8.19785 1.3649 8.51524 1.83319 8.69162L6.19985 10.3583C6.29929 10.3963 6.38982 10.4544 6.46581 10.529C6.5418 10.6035 6.60161 10.6929 6.64152 10.7916L8.30819 15.1666C8.47784 15.6283 8.7857 16.0264 9.18983 16.3068C9.59395 16.5871 10.0747 16.736 10.5665 16.7333H10.6249C11.1257 16.7242 11.6111 16.5586 12.0131 16.2597C12.4151 15.9608 12.7135 15.5436 12.8665 15.0666L16.8082 3.25828C16.9515 2.8324 16.9729 2.3749 16.8698 1.93752C16.7667 1.50014 16.5433 1.10033 16.2249 0.783285ZM15.2665 2.73328L11.2832 14.5499C11.2369 14.6995 11.144 14.8303 11.0181 14.9233C10.8921 15.0163 10.7397 15.0665 10.5832 15.0666C10.4276 15.0692 10.2749 15.0243 10.1453 14.938C10.0158 14.8516 9.91569 14.7279 9.85819 14.5833L8.19152 10.2083C8.07069 9.89039 7.88435 9.60146 7.64459 9.36027C7.40483 9.11908 7.11702 8.93101 6.79985 8.80828L2.42485 7.14162C2.27726 7.08754 2.1504 6.98845 2.06217 6.85836C1.97395 6.72827 1.92883 6.57374 1.93319 6.41662C1.93331 6.26007 1.98353 6.10767 2.0765 5.98172C2.16946 5.85577 2.3003 5.76287 2.44985 5.71662L14.2665 1.77495C14.4022 1.71966 14.551 1.70484 14.6949 1.73231C14.8388 1.75977 14.9717 1.82832 15.0774 1.92969C15.1832 2.03106 15.2574 2.16089 15.2909 2.3035C15.3245 2.44611 15.316 2.59539 15.2665 2.73328Z" fill="#9372F1"/>
</svg>
