<svg width="16" height="16" viewBox="0 0 16 16" fill="none" xmlns="http://www.w3.org/2000/svg">
<path d="M8.6969 14.0084C8.4161 14.2959 8.17853 14.5343 8.00058 14.7111C7.79574 14.4979 7.50984 14.1977 7.16833 13.8321C6.45607 13.0697 5.50354 12.0245 4.54041 10.8919C3.5759 9.75763 2.6076 8.54358 1.85994 7.44207C1.48606 6.89124 1.17256 6.37613 0.943058 5.91873C0.71017 5.45458 0.579615 5.0806 0.543706 4.8053C0.373589 3.50108 0.715091 2.57336 1.28565 1.97111C1.86435 1.36027 2.73432 1.02563 3.72197 1.02563C4.66295 1.02563 5.62561 1.51217 6.39165 2.05157C6.76688 2.31578 7.07829 2.5808 7.29562 2.77965C7.40401 2.87883 7.4883 2.9609 7.54467 3.01731C7.57284 3.04549 7.59399 3.06722 7.60764 3.08141L7.62242 3.09689L7.62546 3.10013L7.62556 3.10023L7.62571 3.10039L7.62581 3.1005L7.62588 3.10058L8.02114 3.52592L8.38262 3.07176L8.38275 3.0716L8.38285 3.07148L8.38287 3.07144L8.38303 3.07124L8.38519 3.06858L8.39732 3.0538C8.40869 3.04009 8.42652 3.01886 8.45048 2.9912C8.49843 2.93582 8.57074 2.8549 8.66473 2.75695C8.85327 2.56047 9.12611 2.29856 9.46199 2.03756C10.146 1.50599 11.0304 1.02563 11.9638 1.02563C12.9633 1.02563 13.9983 1.36742 14.6613 2.05254C15.2975 2.70982 15.6628 3.75698 15.2067 5.35322C14.9824 6.13854 14.4178 7.13741 13.6569 8.22103C12.9033 9.29444 11.9852 10.4121 11.0917 11.4288C10.1992 12.4444 9.33664 13.3532 8.6969 14.0084Z"  stroke="#F42463"/>
</svg>
