<svg width="17" height="16" viewBox="0 0 17 16" fill="none" xmlns="http://www.w3.org/2000/svg">
<path d="M16.1982 5.6198L11.1989 4.89327L8.96302 0.363265C8.84324 0.121088 8.61088 0 8.37853 0C8.14617 0 7.91381 0.121088 7.79403 0.363265L5.55815 4.89327L0.55885 5.6198C0.0240985 5.69703 -0.189278 6.35418 0.19755 6.73185L3.81514 10.2578L2.96098 15.2368C2.88832 15.6583 3.22344 16 3.60307 16C3.70322 16 3.80663 15.9764 3.90678 15.9234L8.37918 13.573L12.8503 15.9234C12.9504 15.9758 13.0538 16 13.154 16C13.5336 16 13.8687 15.6577 13.7961 15.2368L12.9419 10.2578L16.5595 6.73185C16.9463 6.35418 16.733 5.69703 16.1982 5.6198Z" fill="#FFC529"/>
</svg>
