<svg width="32" height="32" viewBox="0 0 32 32" fill="none" xmlns="http://www.w3.org/2000/svg">
<path d="M16.5 2.5C8.77407 2.5 2.5 8.77407 2.5 16.5C2.5 24.2259 8.77407 30.5 16.5 30.5C24.2259 30.5 30.5 24.2259 30.5 16.5C30.5 8.77407 24.2259 2.5 16.5 2.5ZM16.5 3.53704C18.4859 3.53704 20.3578 3.99437 22.0399 4.79081C20.8255 5.03556 19.7936 5.56859 19.5468 5.51363C19.1683 5.43067 17.3348 5.748 16.6618 6C15.9887 6.25304 16.052 6.57348 15.884 6.616C15.716 6.65748 15.6258 6.80785 15.3655 7.10133C15.1052 7.39585 15.4951 7.74948 15.4951 7.74948C15.4951 7.74948 16.4938 7.97452 16.6618 7.23096C16.7613 6.79022 16.6203 7.60844 16.6618 7.94444C16.7033 8.28148 17.3307 8.36444 17.6667 7.94444C17.8181 7.75467 17.7973 7.29111 17.8938 7.13452C18.012 6.94163 18.2733 7.08889 18.4123 7.06919C18.4953 7.05881 18.3044 7.20089 18.4123 7.26415C18.627 7.39067 19.0687 7.17393 18.963 7.68519C18.9204 7.89156 18.2692 7.932 18.1852 8.23585C18.1001 8.5397 17.9581 8.72222 17.9581 8.72222L16.5653 8.75437L16.1111 8.10622C16.1111 8.10622 15.6693 8.29807 15.7865 8.69007C15.8684 8.9597 15.6579 9.27289 15.6579 9.27289C15.6579 9.27289 14.9444 9.38696 14.9444 9.59748C14.9444 9.71259 14.6541 9.72711 14.4902 9.79141C14.3564 9.8443 14.2662 10.0641 14.1345 10.0828C14.0557 10.0932 13.5631 10.1658 13.4542 10.1803C13.1576 10.2166 13.2914 10.284 13.2914 10.4074C13.2914 10.5754 13.8421 10.6024 13.8421 10.6024C13.8421 10.6024 14.1947 10.7382 14.0702 10.9902C13.9437 11.2433 14.1594 11.347 13.9074 11.347C13.7975 11.347 13.5444 11.3127 13.2914 11.3148C12.9647 11.3148 12.6516 11.2121 12.6433 11.347C12.6121 11.8655 12.6111 12.6111 12.6111 12.6111C12.6111 12.6111 13.0539 12.8289 13.2914 12.7729C13.6212 12.6961 14.1044 12.9544 14.3284 12.3519C14.3461 12.3052 14.3575 12.2046 14.3938 12.1569C14.5493 11.9526 14.7184 11.5399 14.9766 11.4123C15.1353 11.3324 15.3561 11.3843 15.4308 11.3801C15.5988 11.3698 15.884 11.152 15.884 11.152C15.884 11.152 16.6286 11.2536 16.8236 11.9951C16.8816 12.2139 16.8267 12.5738 16.9532 12.6433C17.031 12.6858 17.3753 12.3197 17.3753 12.3197L17.7641 12.3519L17.537 11.8333L16.8236 11.0234L16.9532 10.9612C16.9532 10.9612 17.4945 10.9964 17.537 11.1219C17.5785 11.2484 18.2298 11.5679 18.1209 11.9329C17.9384 12.5354 18.3801 12.6775 18.3801 12.6775C18.3801 12.6775 18.7628 12.7677 18.9298 12.4514C19.076 12.1745 19.0926 11.9329 19.0926 11.9329L19.579 11.8333C19.579 11.8333 19.5323 10.8243 20.0643 10.7963C20.5973 10.7693 20.6481 10.7963 20.6481 10.7963C20.6481 10.7963 21.8179 11.1831 21.9444 11.4766C22.0699 11.7711 22.128 12.0511 21.7495 12.0926C21.372 12.1351 20.8099 12.0615 20.8099 12.0615C20.8099 12.0615 19.3228 11.8364 19.4493 12.2564C19.5748 12.6775 19.7086 13.0996 19.7086 13.0996C19.7086 13.0996 20.0311 13.0653 20.3236 13.1296C20.6367 13.2012 21.037 13.1618 21.037 13.1618L21.1024 13.8753L20.9074 13.9396C20.6959 13.9987 20.0705 14.0391 19.9025 14.1013C19.7345 14.1636 17.9031 13.8441 17.8616 13.9074C17.8191 13.9696 17.2249 14.1853 16.8889 14.1024C16.5529 14.0173 16.4679 13.2271 16.4679 13.2271C16.4679 13.2271 16.4067 12.8496 16.1764 12.8704L14.3616 13.0321C14.3616 13.0321 13.8431 13.2634 13.8431 13.3889C13.8431 13.3889 13.6959 13.2831 13.4864 13.3889C13.2759 13.4947 12.9544 13.4801 12.8704 13.6481C12.7864 13.8161 12.4556 14.1314 12.2865 14.4259C12.1196 14.7194 11.6363 14.7433 11.5087 15.269C11.3833 15.7938 11.2941 16.6721 11.3148 17.0507C11.3356 17.4292 11.3252 18.3677 11.7037 18.5741C12.0822 18.7815 12.5841 19.2917 12.7729 19.4815C12.9616 19.6702 13.9759 19.8237 14.1013 19.7407C14.2279 19.6567 14.681 19.4815 14.9123 19.4815C15.1436 19.4815 15.6403 19.5178 15.7876 19.6433C15.9338 19.7698 16.1142 20.0415 16.2407 20.3567C16.3662 20.672 16.4927 21.204 16.5975 21.3938C16.7022 21.5825 17.1015 21.9434 16.9532 22.3012C16.807 22.659 16.555 23.0147 16.5975 23.4347C16.639 23.8547 16.891 24.4126 16.9864 24.6013C17.0818 24.7901 17.6884 25.3843 17.6667 25.5741C17.6459 25.7628 17.8243 25.7161 18.0556 25.8012C18.2868 25.8841 19.2689 25.6135 19.4172 25.4444C19.5634 25.2764 19.7916 24.7455 20.0653 24.4717C20.3381 24.199 20.9053 23.751 21.1988 23.4347C21.4933 23.1194 21.7941 22.8301 21.8148 22.4308C21.8356 22.0305 21.6043 21.1521 21.8148 21.0049C22.0253 20.8576 22.3167 20.6295 22.5283 20.3567C22.7378 20.083 23.1847 20.1047 23.5 19.2222C23.8153 18.3397 23.919 18.0649 23.8567 18.0234C23.7945 17.9809 23.2926 18.1893 23.2086 18.3148C23.1246 18.4413 22.633 18.4724 22.5273 18.5741C22.4236 18.6757 21.9444 18.5741 21.9444 18.5741C21.9444 18.5741 22.1467 17.7776 22.0419 17.5049C21.9361 17.2321 21.399 16.165 21.231 15.7865C21.093 15.4764 21.0692 15.1176 21.1345 14.8801C21.1615 14.9185 21.1781 14.9393 21.1988 14.9766C21.2735 15.1114 21.6769 15.5884 21.847 16.079C22.2099 17.1295 22.6247 17.8938 22.6247 17.8938C22.6247 17.8938 23.1723 17.9145 24.0839 17.2124C24.703 16.7364 25.3656 16.7116 25.4766 16.4679C25.6871 16.0053 24.8284 15.5926 24.8284 15.5926H24.0507L23.4679 14.5877L23.6296 14.5234C23.6296 14.5234 24.2757 15.269 24.5692 15.269C24.8637 15.269 25.6456 15.2006 25.8987 15.4951C26.1507 15.7896 26.9388 16.2874 27.0653 16.7914C27.1919 17.2954 27.1276 18.0006 27.3557 18.2505C27.6793 18.601 27.9727 18.5741 27.9727 18.5741L28.3616 17.6667L29.269 16.6296L29.4609 16.5321C29.4433 23.6825 23.6535 29.463 16.5 29.463C13.2426 29.4643 10.1051 28.2337 7.71733 26.0179L8.10622 25.4444L8.56044 23.6296L7.45807 22.9493L6.19496 22.5273L5.35185 20.4864C5.35185 20.4864 4.56578 19.8507 3.91348 19.5561C3.66707 18.556 3.5407 17.5301 3.53704 16.5C3.53704 15.7357 3.61689 14.9901 3.74444 14.2621C4.54089 13.6502 5.61111 13.1628 5.61111 13.1628C5.61111 13.1628 6.20222 13.0944 5.19007 11.4123C5.06134 11.2008 4.96421 10.9716 4.90178 10.732C5.32696 9.87748 5.83407 9.0717 6.42933 8.33644C6.37748 8.64444 6.1763 9.92311 6.55067 10.1481C6.97067 10.4001 7.37407 9.62237 7.45807 9.37037C7.54207 9.11837 8.41837 8.15704 8.75437 7.65304C8.99393 7.29318 8.90993 6.59526 8.66311 6.18667C10.9135 4.46663 13.6676 3.53547 16.5 3.53704ZM13.9396 5.87037C13.7384 5.89007 13.3236 5.99793 13.3236 6.32459V6.93956C13.3236 6.93956 13.1991 7.16148 13.1296 7.232C13.0591 7.30148 13.1203 7.624 13.1618 7.75052C13.2033 7.87704 13.2271 8.26904 13.2271 8.26904C13.2271 8.26904 13.4304 8.37481 13.4864 8.43081C13.5424 8.48578 14.0215 8.60711 14.232 8.49511C14.4415 8.38415 14.5639 8.08859 14.7173 8.07407C14.8719 8.05956 14.7775 8.06059 14.7495 7.94444C14.7225 7.83244 14.8801 7.42593 14.8801 7.42593L14.4581 7.06919C14.4581 7.06919 14.203 6.52474 14.231 6.35674C14.259 6.1877 14.0236 5.89007 14.037 5.87037C14.0401 5.86 14.0059 5.86 13.9396 5.87037ZM12.8393 7.10237C12.7822 7.12726 12.6723 7.26415 12.6121 7.2963C12.5323 7.33674 12.5572 7.4757 12.5147 7.5877C12.4732 7.6997 12.3529 8.10622 12.3529 8.10622L12.6121 8.2037C12.6121 8.2037 13.0239 8.12593 13.0664 8.04193C13.0996 7.97452 12.9782 7.60637 12.9357 7.45807C12.9253 7.42281 12.9357 7.39378 12.9357 7.39378L12.8714 7.13452C12.861 7.11378 12.8579 7.09304 12.8393 7.10133V7.10237ZM23.696 10.6667C23.7904 10.6667 23.977 10.733 24.0196 10.7641C24.0756 10.8056 24.0756 11.2982 24.0196 11.6062C23.9989 11.7092 24.0132 11.8161 24.0602 11.91C24.1071 12.0039 24.1841 12.0795 24.2788 12.1247C24.3639 12.1527 24.423 12.8279 24.4084 12.9679C24.395 13.1079 23.9988 13.2126 23.8899 13.2271C23.781 13.2416 23.3247 13.2375 23.3393 13.0321C23.3538 12.8289 23.2604 12.1641 23.1764 11.8976C23.0935 11.6321 23.1153 11.2547 23.2418 11.1852C23.3683 11.1157 23.6307 10.6988 23.6307 10.6988C23.641 10.676 23.6639 10.6677 23.696 10.6667ZM23.1121 22.1394C23.0613 22.1394 22.9877 22.1498 22.9172 22.1705C22.9172 22.1705 22.8881 22.7927 22.5936 22.9815C22.3001 23.1713 22.1073 23.5373 22.1073 23.7271C22.1073 23.9159 22.045 24.088 22.1073 24.2778C22.1705 24.4665 22.3147 24.6231 22.4961 24.6024C22.6787 24.5816 22.8757 24.1876 22.9182 24.0185C22.9597 23.8505 23.1163 23.4876 23.2418 23.3704C23.3683 23.2532 23.3932 22.9234 23.3714 22.7544C23.3538 22.6081 23.4647 22.1311 23.1121 22.1394Z" fill="#212832"/>
</svg>
