<svg width="32" height="32" viewBox="0 0 32 32" fill="none" xmlns="http://www.w3.org/2000/svg">
<path d="M22.6666 12.0001V9.33341C22.6666 5.60008 19.7333 2.66675 15.9999 2.66675C12.2666 2.66675 9.33325 5.60008 9.33325 9.33341V12.0001C7.06659 12.0001 5.33325 13.7334 5.33325 16.0001V25.3334C5.33325 27.6001 7.06659 29.3334 9.33325 29.3334H22.6666C24.9333 29.3334 26.6666 27.6001 26.6666 25.3334V16.0001C26.6666 13.7334 24.9333 12.0001 22.6666 12.0001ZM11.9999 9.33341C11.9999 7.06675 13.7333 5.33341 15.9999 5.33341C18.2666 5.33341 19.9999 7.06675 19.9999 9.33341V12.0001H11.9999V9.33341ZM17.4666 20.6667L17.3333 20.8001V22.6667C17.3333 23.4667 16.7999 24.0001 15.9999 24.0001C15.1999 24.0001 14.6666 23.4667 14.6666 22.6667V20.8001C13.8666 20.0001 13.7333 18.8001 14.5333 18.0001C15.3333 17.2001 16.5333 17.0667 17.3333 17.8667C18.1333 18.5334 18.2666 19.8667 17.4666 20.6667Z" fill="#212832"/>
</svg>
