<svg width="21" height="12" viewBox="0 0 21 12" fill="none" xmlns="http://www.w3.org/2000/svg">
<path d="M18.1278 4.09301C18.6938 4.63873 19.3524 5.27371 20.1661 6.00146C19.6308 6.48751 19.1526 6.95373 18.7084 7.38688C18.5779 7.51416 18.4503 7.63859 18.325 7.75983C17.6585 8.40496 17.0584 8.95951 16.4045 9.419C15.1251 10.318 13.5952 10.8846 10.9189 10.8846C6.66083 10.8846 4.79482 9.05082 2.77116 7.06212C2.41322 6.71036 2.05034 6.35375 1.66842 6.00159C2.20508 5.51441 2.6843 5.04713 3.12945 4.61306C3.25999 4.48578 3.38759 4.36135 3.51286 4.24012C4.17944 3.59499 4.77951 3.04043 5.43342 2.58095C6.71279 1.68197 8.24274 1.11536 10.9189 1.11536C13.6399 1.11536 14.8664 1.44796 15.9774 2.20622C16.5544 2.60007 17.1144 3.11862 17.8396 3.81544C17.933 3.90525 18.029 3.99777 18.1278 4.09301Z" stroke="#878787"/>
<circle cx="10.919" cy="6.00002" r="2.57692" stroke="#878787"/>
</svg>
