<svg width="25" height="24" viewBox="0 0 25 24" fill="none" xmlns="http://www.w3.org/2000/svg">
<path d="M19.2089 10.0931C19.7749 10.6388 20.4335 11.2737 21.2471 12.0015C20.7118 12.4875 20.2337 12.9537 19.7895 13.3869C19.659 13.5142 19.5313 13.6386 19.4061 13.7598C18.7395 14.405 18.1394 14.9595 17.4855 15.419C16.2062 16.318 14.6762 16.8846 12 16.8846C7.74188 16.8846 5.87588 15.0508 3.85222 13.0621C3.49427 12.7104 3.13139 12.3538 2.74948 12.0016C3.28614 11.5144 3.76536 11.0471 4.21052 10.6131C4.34105 10.4858 4.46865 10.3613 4.59391 10.2401C5.26049 9.59499 5.86056 9.04043 6.51447 8.58095C7.79385 7.68197 9.32379 7.11536 12 7.11536C14.721 7.11536 15.9475 7.44796 17.0584 8.20622C17.6355 8.60007 18.1954 9.11862 18.9206 9.81544C19.0141 9.90527 19.1101 9.9978 19.2089 10.0931Z" stroke="#878787"/>
<circle cx="12" cy="12" r="2.57692" stroke="#878787"/>
<line x1="22.4049" y1="3.38097" x2="2.40488" y2="20.381" stroke="#878787"/>
</svg>
